<?xml version="1.0" encoding="UTF-8" standalone="no"?>
<!-- Created with Inkscape (http://www.inkscape.org/) -->

<svg
   xmlns:dc="http://purl.org/dc/elements/1.1/"
   xmlns:cc="http://creativecommons.org/ns#"
   xmlns:rdf="http://www.w3.org/1999/02/22-rdf-syntax-ns#"
   xmlns:svg="http://www.w3.org/2000/svg"
   xmlns="http://www.w3.org/2000/svg"
   version="1.1"
   width="48"
   height="48"
   viewBox="0 0 48.000002 47.999999"
   id="Layer_1"
   xml:space="preserve"><metadata
     id="metadata175"><rdf:RDF><cc:Work
         rdf:about=""><dc:format>image/svg+xml</dc:format><dc:type
           rdf:resource="http://purl.org/dc/dcmitype/StillImage" /><dc:title></dc:title></cc:Work></rdf:RDF></metadata><defs
     id="defs173" /><rect
     width="48"
     height="48"
     x="0"
     y="-2.2912784e-06"
     id="rect4324"
     style="fill:#ea5224;fill-opacity:1;stroke:none" /><g
     transform="matrix(5.1209347,0,0,5.1209347,-120.16783,-307.95031)"
     id="g4830"><g
       transform="translate(7.44152e-7,0.14835704)"
       id="g4845"><path
         d="m 30.943257,67.864782 5e-4,-1.83e-4 -1.884,-4.548325 v -1.3815 h 0.141333 c 0.216333,0 0.391667,-0.169834 0.391667,-0.3795 0,-0.2095 -0.175334,-0.379167 -0.391667,-0.379167 h -2.125833 c -0.216167,0 -0.3915,0.169833 -0.3915,0.379167 0,0.209833 0.175333,0.3795 0.3915,0.3795 h 0.1295 v 1.417666 l -1.8635,4.498834 c -0.048,0.07533 -0.076,0.164333 -0.076,0.26 0,0.267667 0.217167,0.484833 0.484833,0.484833 h 4.776333 c 0.267667,0 0.484834,-0.217166 0.484834,-0.484833 0,-0.09017 -0.025,-0.174167 -0.068,-0.2465 z"
         id="path73-5-4"
         style="fill:#d04014;fill-opacity:1" /><path
         d="m 30.97202,67.440264 5e-4,-1.67e-4 -1.884,-4.548333 v -1.3815 h 0.141333 c 0.216334,0 0.391667,-0.169834 0.391667,-0.3795 0,-0.2095 -0.175333,-0.379167 -0.391667,-0.379167 H 27.10402 c -0.216167,0 -0.3915,0.169833 -0.3915,0.379167 0,0.209833 0.175333,0.3795 0.3915,0.3795 h 0.1295 v 1.417666 l -1.8635,4.498834 c -0.048,0.07533 -0.076,0.164333 -0.076,0.26 0,0.267667 0.217167,0.484833 0.484833,0.484833 h 4.776334 c 0.267666,0 0.484833,-0.217166 0.484833,-0.484833 0,-0.09017 -0.025,-0.174167 -0.068,-0.2465 z"
         id="path73-5"
         style="fill:#ffffff" /></g></g></svg>